inDegrees=no
DataType=double
version=3
OpenSimVersion=4.4-2022-10-11-798caa840
endheader
time	elv_angle	shoulder_elv	shoulder_rot	elbow_flexion	pro_sup	deviation	flexion
1.2010425717	0.0783617049	0.5854632795	0.1649720104	1.4676888203	0.0000000000	0.0000000000	0.0000000000
1.2052128584	0.0794416373	0.5863158577	0.1672455522	1.4662678567	0.0000000000	0.0000000000	0.0000000000
1.2093831451	0.0805273983	0.5871730374	0.1695313649	1.4648392237	0.0000000000	0.0000000000	0.0000000000
1.2135534318	0.0816189207	0.5880347656	0.1718293067	1.4634030101	0.0000000000	0.0000000000	0.0000000000
1.2177237185	0.0827161364	0.5889009885	0.1741392345	1.4619593053	0.0000000000	0.0000000000	0.0000000000
1.2218940052	0.0838189768	0.5897716520	0.1764610038	1.4605081994	0.0000000000	0.0000000000	0.0000000000
1.2260642919	0.0849273727	0.5906467014	0.1787944688	1.4590497838	0.0000000000	0.0000000000	0.0000000000
1.2302345786	0.0860412541	0.5915260815	0.1811394823	1.4575841503	0.0000000000	0.0000000000	0.0000000000
1.2344048653	0.0871605506	0.5924097366	0.1834958960	1.4561113918	0.0000000000	0.0000000000	0.0000000000
1.2385751520	0.0882851910	0.5932976106	0.1858635600	1.4546316018	0.0000000000	0.0000000000	0.0000000000
1.2427454387	0.0894151036	0.5941896468	0.1882423233	1.4531448747	0.0000000000	0.0000000000	0.0000000000
1.2469157255	0.0905502160	0.5950857883	0.1906320337	1.4516513057	0.0000000000	0.0000000000	0.0000000000
1.2510860122	0.0916904554	0.5959859773	0.1930325378	1.4501509907	0.0000000000	0.0000000000	0.0000000000
1.2552562989	0.0928357483	0.5968901559	0.1954436807	1.4486440263	0.0000000000	0.0000000000	0.0000000000
1.2594265856	0.0939860207	0.5977982656	0.1978653067	1.4471305101	0.0000000000	0.0000000000	0.0000000000
1.2635968723	0.0951411979	0.5987102476	0.2002972588	1.4456105401	0.0000000000	0.0000000000	0.0000000000
1.2677671590	0.0963012048	0.5996260426	0.2027393786	1.4440842152	0.0000000000	0.0000000000	0.0000000000
1.2719374457	0.0974659658	0.6005455907	0.2051915070	1.4425516349	0.0000000000	0.0000000000	0.0000000000
1.2761077324	0.0986354046	0.6014688319	0.2076534835	1.4410128996	0.0000000000	0.0000000000	0.0000000000
1.2802780191	0.0998094446	0.6023957055	0.2101251465	1.4394681102	0.0000000000	0.0000000000	0.0000000000
1.2844483058	0.1009880085	0.6033261507	0.2126063336	1.4379173683	0.0000000000	0.0000000000	0.0000000000
1.2886185925	0.1021710185	0.6042601060	0.2150968812	1.4363607761	0.0000000000	0.0000000000	0.0000000000
1.2927888792	0.1033583966	0.6051975098	0.2175966245	1.4347984365	0.0000000000	0.0000000000	0.0000000000
1.2969591659	0.1045500640	0.6061382998	0.2201053979	1.4332304531	0.0000000000	0.0000000000	0.0000000000
1.3011294526	0.1057459415	0.6070824136	0.2226230348	1.4316569301	0.0000000000	0.0000000000	0.0000000000
1.3052997394	0.1069459496	0.6080297884	0.2251493676	1.4300779721	0.0000000000	0.0000000000	0.0000000000
1.3094700261	0.1081500082	0.6089803610	0.2276842277	1.4284936845	0.0000000000	0.0000000000	0.0000000000
1.3136403128	0.1093580367	0.6099340677	0.2302274457	1.4269041732	0.0000000000	0.0000000000	0.0000000000
1.3178105995	0.1105699543	0.6108908448	0.2327788512	1.4253095448	0.0000000000	0.0000000000	0.0000000000
1.3219808862	0.1117856796	0.6118506279	0.2353382728	1.4237099063	0.0000000000	0.0000000000	0.0000000000
1.3261511729	0.1130051308	0.6128133526	0.2379055386	1.4221053652	0.0000000000	0.0000000000	0.0000000000
1.3303214596	0.1142282258	0.6137789539	0.2404804754	1.4204960297	0.0000000000	0.0000000000	0.0000000000
1.3344917463	0.1154548820	0.6147473667	0.2430629095	1.4188820084	0.0000000000	0.0000000000	0.0000000000
1.3386620330	0.1166850165	0.6157185254	0.2456526662	1.4172634104	0.0000000000	0.0000000000	0.0000000000
1.3428323197	0.1179185459	0.6166923644	0.2482495702	1.4156403454	0.0000000000	0.0000000000	0.0000000000
1.3470026064	0.1191553865	0.6176688176	0.2508534453	1.4140129235	0.0000000000	0.0000000000	0.0000000000
1.3511728931	0.1203954544	0.6186478185	0.2534641145	1.4123812552	0.0000000000	0.0000000000	0.0000000000
1.3553431798	0.1216386651	0.6196293007	0.2560814003	1.4107454516	0.0000000000	0.0000000000	0.0000000000
1.3595134666	0.1228849340	0.6206131971	0.2587051241	1.4091056242	0.0000000000	0.0000000000	0.0000000000
1.3636837533	0.1241341759	0.6215994408	0.2613351071	1.4074618849	0.0000000000	0.0000000000	0.0000000000
1.3678540400	0.1253863055	0.6225879641	0.2639711694	1.4058143459	0.0000000000	0.0000000000	0.0000000000
1.3720243267	0.1266412371	0.6235786997	0.2666131308	1.4041631200	0.0000000000	0.0000000000	0.0000000000
1.3761946134	0.1278988849	0.6245715794	0.2692608102	1.4025083204	0.0000000000	0.0000000000	0.0000000000
1.3803649001	0.1291591624	0.6255665354	0.2719140261	1.4008500605	0.0000000000	0.0000000000	0.0000000000
1.3845351868	0.1304219832	0.6265634992	0.2745725962	1.3991884542	0.0000000000	0.0000000000	0.0000000000
1.3887054735	0.1316872605	0.6275624023	0.2772363378	1.3975236157	0.0000000000	0.0000000000	0.0000000000
1.3928757602	0.1329549071	0.6285631760	0.2799050677	1.3958556595	0.0000000000	0.0000000000	0.0000000000
1.3970460469	0.1342248359	0.6295657513	0.2825786019	1.3941847006	0.0000000000	0.0000000000	0.0000000000
1.4012163336	0.1354969591	0.6305700591	0.2852567561	1.3925108542	0.0000000000	0.0000000000	0.0000000000
1.4053866203	0.1367711891	0.6315760302	0.2879393456	1.3908342358	0.0000000000	0.0000000000	0.0000000000
1.4095569070	0.1380474378	0.6325835949	0.2906261849	1.3891549612	0.0000000000	0.0000000000	0.0000000000
1.4137271937	0.1393256170	0.6335926838	0.2933170885	1.3874731465	0.0000000000	0.0000000000	0.0000000000
1.4178974805	0.1406056383	0.6346032269	0.2960118701	1.3857889080	0.0000000000	0.0000000000	0.0000000000
1.4220677672	0.1418874129	0.6356151542	0.2987103430	1.3841023624	0.0000000000	0.0000000000	0.0000000000
1.4262380539	0.1431708522	0.6366283958	0.3014123205	1.3824136265	0.0000000000	0.0000000000	0.0000000000
1.4304083406	0.1444558672	0.6376428812	0.3041176151	1.3807228174	0.0000000000	0.0000000000	0.0000000000
1.4345786273	0.1457423686	0.6386585402	0.3068260391	1.3790300524	0.0000000000	0.0000000000	0.0000000000
1.4387489140	0.1470302671	0.6396753023	0.3095374045	1.3773354490	0.0000000000	0.0000000000	0.0000000000
1.4429192007	0.1483194734	0.6406930967	0.3122515230	1.3756391249	0.0000000000	0.0000000000	0.0000000000
1.4470894874	0.1496098979	0.6417118529	0.3149682060	1.3739411980	0.0000000000	0.0000000000	0.0000000000
1.4512597741	0.1509014507	0.6427314998	0.3176872646	1.3722417864	0.0000000000	0.0000000000	0.0000000000
1.4554300608	0.1521940421	0.6437519667	0.3204085097	1.3705410082	0.0000000000	0.0000000000	0.0000000000
1.4596003475	0.1534875821	0.6447731826	0.3231317519	1.3688389819	0.0000000000	0.0000000000	0.0000000000
1.4637706342	0.1547819808	0.6457950762	0.3258568016	1.3671358258	0.0000000000	0.0000000000	0.0000000000
1.4679409209	0.1560771478	0.6468175765	0.3285834691	1.3654316586	0.0000000000	0.0000000000	0.0000000000
1.4721112076	0.1573729931	0.6478406123	0.3313115645	1.3637265990	0.0000000000	0.0000000000	0.0000000000
1.4762814944	0.1586694264	0.6488641122	0.3340408976	1.3620207658	0.0000000000	0.0000000000	0.0000000000
1.4804517811	0.1599663572	0.6498880050	0.3367712783	1.3603142778	0.0000000000	0.0000000000	0.0000000000
1.4846220678	0.1612636952	0.6509122192	0.3395025163	1.3586072541	0.0000000000	0.0000000000	0.0000000000
1.4887923545	0.1625613500	0.6519366835	0.3422344211	1.3568998136	0.0000000000	0.0000000000	0.0000000000
1.4929626412	0.1638592311	0.6529613264	0.3449668023	1.3551920754	0.0000000000	0.0000000000	0.0000000000
1.4971329279	0.1651572479	0.6539860766	0.3476994693	1.3534841585	0.0000000000	0.0000000000	0.0000000000
1.5013032146	0.1664553100	0.6550108624	0.3504322315	1.3517761821	0.0000000000	0.0000000000	0.0000000000
1.5054735013	0.1677533268	0.6560356126	0.3531648985	1.3500682652	0.0000000000	0.0000000000	0.0000000000
1.5096437880	0.1690512079	0.6570602555	0.3558972797	1.3483605270	0.0000000000	0.0000000000	0.0000000000
1.5138140747	0.1703488626	0.6580847198	0.3586291845	1.3466530865	0.0000000000	0.0000000000	0.0000000000
1.5179843614	0.1716462007	0.6591089340	0.3613604225	1.3449460628	0.0000000000	0.0000000000	0.0000000000
1.5221546481	0.1729431315	0.6601328268	0.3640908032	1.3432395748	0.0000000000	0.0000000000	0.0000000000
1.5263249348	0.1742395647	0.6611563267	0.3668201363	1.3415337416	0.0000000000	0.0000000000	0.0000000000
1.5304952215	0.1755354100	0.6621793625	0.3695482317	1.3398286820	0.0000000000	0.0000000000	0.0000000000
1.5346655083	0.1768305771	0.6632018628	0.3722748992	1.3381245148	0.0000000000	0.0000000000	0.0000000000
1.5388357950	0.1781249757	0.6642237564	0.3749999489	1.3364213587	0.0000000000	0.0000000000	0.0000000000
1.5430060817	0.1794185158	0.6652449723	0.3777231911	1.3347193324	0.0000000000	0.0000000000	0.0000000000
1.5471763684	0.1807111072	0.6662654392	0.3804444362	1.3330185542	0.0000000000	0.0000000000	0.0000000000
1.5513466551	0.1820026600	0.6672850861	0.3831634948	1.3313191426	0.0000000000	0.0000000000	0.0000000000
1.5555169418	0.1832930845	0.6683038423	0.3858801778	1.3296212157	0.0000000000	0.0000000000	0.0000000000
1.5596872285	0.1845822907	0.6693216367	0.3885942963	1.3279248916	0.0000000000	0.0000000000	0.0000000000
1.5638575152	0.1858701893	0.6703383987	0.3913056617	1.3262302882	0.0000000000	0.0000000000	0.0000000000
1.5680278019	0.1871566907	0.6713540578	0.3940140857	1.3245375232	0.0000000000	0.0000000000	0.0000000000
1.5721980886	0.1884417056	0.6723685432	0.3967193803	1.3228467141	0.0000000000	0.0000000000	0.0000000000
1.5763683753	0.1897251449	0.6733817848	0.3994213578	1.3211579782	0.0000000000	0.0000000000	0.0000000000
1.5805386620	0.1910069196	0.6743937121	0.4021198307	1.3194714326	0.0000000000	0.0000000000	0.0000000000
1.5847089487	0.1922869408	0.6754042552	0.4048146123	1.3177871941	0.0000000000	0.0000000000	0.0000000000
1.5888792354	0.1935651200	0.6764133440	0.4075055159	1.3161053794	0.0000000000	0.0000000000	0.0000000000
1.5930495222	0.1948413687	0.6774209088	0.4101923552	1.3144261048	0.0000000000	0.0000000000	0.0000000000
1.5972198089	0.1961155987	0.6784268799	0.4128749447	1.3127494864	0.0000000000	0.0000000000	0.0000000000
1.6013900956	0.1973877220	0.6794311877	0.4155530989	1.3110756400	0.0000000000	0.0000000000	0.0000000000
1.6055603823	0.1986576507	0.6804337630	0.4182266331	1.3094046811	0.0000000000	0.0000000000	0.0000000000
1.6097306690	0.1999252974	0.6814345367	0.4208953630	1.3077367249	0.0000000000	0.0000000000	0.0000000000
1.6139009557	0.2011905747	0.6824334398	0.4235591046	1.3060718864	0.0000000000	0.0000000000	0.0000000000
1.6180712424	0.2024533955	0.6834304036	0.4262176747	1.3044102801	0.0000000000	0.0000000000	0.0000000000
1.6222415291	0.2037136730	0.6844253596	0.4288708906	1.3027520202	0.0000000000	0.0000000000	0.0000000000
1.6264118158	0.2049713207	0.6854182393	0.4315185700	1.3010972206	0.0000000000	0.0000000000	0.0000000000
1.6305821025	0.2062262524	0.6864089749	0.4341605314	1.2994459947	0.0000000000	0.0000000000	0.0000000000
1.6347523892	0.2074783820	0.6873974982	0.4367965937	1.2977984557	0.0000000000	0.0000000000	0.0000000000
